<?xml version="1.0" encoding="UTF-8" standalone="no"?>
<!-- Created using Krita: https://krita.org -->

<svg
   width="576pt"
   height="576pt"
   viewBox="0 0 576 576"
   version="1.1"
   id="svg1"
   sodipodi:docname="lightmode_select.svg"
   inkscape:version="1.4 (e7c3feb100, 2024-10-09)"
   xml:space="preserve"
   xmlns:inkscape="http://www.inkscape.org/namespaces/inkscape"
   xmlns:sodipodi="http://sodipodi.sourceforge.net/DTD/sodipodi-0.dtd"
   xmlns="http://www.w3.org/2000/svg"
   xmlns:svg="http://www.w3.org/2000/svg"><sodipodi:namedview
     id="namedview1"
     pagecolor="#ffffff"
     bordercolor="#000000"
     borderopacity="0.25"
     inkscape:showpageshadow="2"
     inkscape:pageopacity="0.0"
     inkscape:pagecheckerboard="0"
     inkscape:deskcolor="#d1d1d1"
     inkscape:document-units="pt"
     inkscape:zoom="1.1085372"
     inkscape:cx="689.64758"
     inkscape:cy="433.90515"
     inkscape:window-width="3390"
     inkscape:window-height="1412"
     inkscape:window-x="0"
     inkscape:window-y="0"
     inkscape:window-maximized="1"
     inkscape:current-layer="svg1" /><defs
     id="defs1"><clipPath
       id="a"><path
         fill="#ffffff"
         d="M0 0h24v24H0z"
         id="path2" /></clipPath></defs><g
     id="group0"
     transform="matrix(1.1994046,0,0,1.0642483,225.45741,430.77721)"
     fill="none"><path
       id="shape1"
       transform="translate(1.1034486e-4,16.864)"
       fill="#000000"
       stroke-opacity="0"
       stroke="#000000"
       stroke-width="0"
       stroke-linecap="square"
       stroke-linejoin="bevel"
       d="M 0.56089,4.107 46.5119,61.712 c 0.76,0.951 2.367,0.951 3.127,0 L 95.5949,4.103 c 0.547,-0.689 0.709,-1.716 0.414,-2.61 -0.061,-0.187 -0.129,-0.33 -0.186,-0.437 C 95.4719,0.406 94.7979,0 94.0579,0 H 2.09289 c -0.736,0 -1.414,0.405 -1.762,1.056 -0.059,0.109 -0.127,0.253 -0.184,0.426 -0.297,0.905 -0.1360003,1.934 0.414,2.625 z"
       sodipodi:nodetypes="ccccccccccc" /></g><g
     style="fill:none"
     id="g2"
     transform="matrix(15.584439,0,0,15.358916,98.968665,41.76896)"><path
       d="m 12,0 a 1,1 0 0 1 1,1 V 5 A 1,1 0 1 1 11,5 V 1 A 1,1 0 0 1 12,0 Z M 4.929,3.515 A 1,1 0 0 0 3.515,4.929 L 6.343,7.757 A 1,1 0 0 0 7.757,6.343 L 4.93,3.515 Z M 1,11 a 1,1 0 1 0 0,2 h 4 a 1,1 0 1 0 0,-2 z m 17,1 a 1,1 0 0 1 1,-1 h 4 a 1,1 0 1 1 0,2 h -4 a 1,1 0 0 1 -1,-1 z m -0.343,4.243 a 1,1 0 0 0 -1.414,1.414 l 2.828,2.828 a 1,1 0 1 0 1.414,-1.414 z m -9.9,1.414 A 1,1 0 1 0 6.343,16.243 L 3.515,19.07 a 1,1 0 1 0 1.414,1.414 L 7.757,17.656 Z M 20.485,4.929 A 1,1 0 0 0 19.071,3.515 l -2.828,2.828 a 1,1 0 1 0 1.414,1.414 z M 13,19 a 1,1 0 1 0 -2,0 v 4 a 1,1 0 1 0 2,0 z M 12,7 a 5,5 0 1 0 0,10 5,5 0 0 0 0,-10 z"
       id="path1-5"
       style="fill:#000000" /></g></svg>
